<?xml version="1.0" encoding="UTF-8"?>
<svg width="18px" height="20px" viewBox="0 0 18 20" version="1.1" xmlns="http://www.w3.org/2000/svg" xmlns:xlink="http://www.w3.org/1999/xlink">
    <!-- Generator: Sketch 46.2 (44496) - http://www.bohemiancoding.com/sketch -->
    <title>Delete</title>
    <desc>Created with Sketch.</desc>
    <defs></defs>
    <g id="Symbols" stroke="none" stroke-width="1" fill="none" fill-rule="evenodd" fill-opacity="0.54">
        <g id="Resources-/-Icons-/-24x24-/-Light-/-Delete" transform="translate(-3.000000, -2.000000)" fill="#000000">
            <path d="M15.5,5 L20.25,5 C20.664,5 21,5.3355 21,5.75 C21,6.1645 20.664,6.5 20.25,6.5 L19.4625868,6.5 L19.5005,15.2205 C19.5085,17.0295 18.8095,18.731 17.5335,20.0125 C16.2575,21.294 14.5585,22 12.7505,22 L5.2505,22 C4.8365,22 4.5005,21.6645 4.5005,21.25 L4.4995,9.25 C4.4995,8.836 4.8355,8.5 5.2495,8.5 C5.6635,8.5 5.9995,8.8355 5.9995,9.25 L6.0005,20.5 L12.7505,20.5 C14.157,20.5 15.478,19.951 16.4705,18.9545 C17.4635,17.9575 18.0065,16.634 18.0005,15.227 L17.9625606,6.5 L3.75,6.5 C3.336,6.5 3,6.1645 3,5.75 C3,5.3355 3.336,5 3.75,5 L8.5,5 L8.5,2.75 C8.5,2.3355 8.836,2 9.25,2 L14.75,2 C15.164,2 15.5,2.3355 15.5,2.75 L15.5,5 Z M10,5 L14,5 L14,3.5 L10,3.5 L10,5 Z" id="Delete"></path>
        </g>
    </g>
</svg>
